<?xml version="1.0" encoding="utf-8"?>
<!-- Generator: Adobe Illustrator 27.3.1, SVG Export Plug-In . SVG Version: 6.00 Build 0)  -->
<svg version="1.1" id="Layer_1" xmlns="http://www.w3.org/2000/svg" xmlns:xlink="http://www.w3.org/1999/xlink" x="0px" y="0px"
	 viewBox="0 0 14.3 14.1" style="enable-background:new 0 0 14.3 14.1;" xml:space="preserve">
<g>
	<path d="M11.6,3.2c0.4,0,0.9,0,1.3,0c0,0,0,0.1,0,0.1c0,1.6,0,3.2,0,4.8c0,0.8-0.5,1.3-1.3,1.3c-2.7,0-5.4,0-8.1,0c0,0-0.1,0-0.1,0
		c0-2.1,0-4.1,0-6.2c0.4,0,0.9,0,1.3,0C4.5,4.8,4.9,6.1,6.3,7c1.2,0.8,2.5,0.7,3.8,0C11.2,6.3,12,4.9,11.6,3.2z"/>
	<path d="M8.8,11.5c-0.7,0-1.4,0-2.1,0c0,0.5-0.1,1-0.6,1.3c-0.3,0.2-0.6,0.3-1,0.3c-0.7,0-1.4-0.6-1.4-1.7c-0.1,0-0.1,0-0.2,0
		c-0.3,0-0.6,0-0.8,0c-0.6-0.1-1-0.6-1-1.2c0-1.6,0-3.2,0-4.7c0-1.2,0-2.5,0-3.7c0-0.2,0-0.3-0.3-0.3c-0.2,0-0.4,0-0.6,0
		c-0.2,0-0.4-0.2-0.4-0.4c0-0.2,0.2-0.4,0.4-0.4c0.3,0,0.6,0,0.8,0c0.5,0.1,0.8,0.5,0.8,1c0,0.3,0,0.7,0,1c0,2.5,0,5,0,7.5
		c0,0.3,0.2,0.5,0.5,0.5c2.7,0,5.4,0,8.1,0c0.4,0,0.5,0.1,0.5,0.5c0,0.3,0,0.6-0.1,0.9c-0.2,0.7-0.8,1.2-1.5,1.1
		c-0.7-0.1-1.3-0.7-1.3-1.4C8.8,11.7,8.8,11.6,8.8,11.5z"/>
	<path d="M8.2,1.3c1.5,0,2.7,1.2,2.7,2.7S9.7,6.7,8.2,6.7C6.7,6.7,5.5,5.5,5.5,4C5.5,2.5,6.7,1.3,8.2,1.3z M8.2,3.5
		C8.1,3.4,8.1,3.4,8.2,3.5C7.9,3.2,7.7,3,7.6,2.8C7.4,2.6,7.1,2.6,7,2.8c-0.2,0.2-0.2,0.4,0,0.6C7,3.4,7,3.5,7.1,3.5
		C7.3,3.7,7.4,3.9,7.6,4c0,0-0.1,0.1-0.1,0.1C7.3,4.3,7.1,4.5,7,4.7C6.8,4.8,6.8,4.9,6.9,5.1c0,0.2,0.2,0.2,0.3,0.3
		c0.1,0,0.3,0,0.4-0.1C7.8,5,8,4.8,8.2,4.6c0,0,0.1,0.1,0.1,0.1c0.2,0.2,0.3,0.3,0.5,0.5c0.1,0.1,0.3,0.2,0.5,0.1
		C9.4,5.3,9.5,5.2,9.5,5c0-0.1,0-0.3-0.1-0.4C9.2,4.4,9,4.2,8.8,4C9,3.8,9.2,3.6,9.4,3.4c0.2-0.2,0.2-0.4,0-0.6
		C9.2,2.6,9,2.6,8.8,2.8C8.6,3,8.4,3.2,8.2,3.5z"/>
</g>
</svg>
